<?xml version="1.0" encoding="utf-8"?>
<!-- Generator: Adobe Illustrator 16.0.0, SVG Export Plug-In . SVG Version: 6.00 Build 0)  -->
<!DOCTYPE svg PUBLIC "-//W3C//DTD SVG 1.1//EN" "http://www.w3.org/Graphics/SVG/1.1/DTD/svg11.dtd">
<svg version="1.1" id="Layer_1" xmlns="http://www.w3.org/2000/svg" xmlns:xlink="http://www.w3.org/1999/xlink" x="0px" y="0px"
	 width="163.667px" height="141px" viewBox="0 0 163.667 141" enable-background="new 0 0 163.667 141" xml:space="preserve">
<g>
	<path d="M43.078,66.449c-0.707,0-3.141,0.248-3.719,0.19c0,0-19.025-37.64,22.975-56.974c0,0,5.332-8-7.334-4.666
		c0,0-48.483,11.538-47.908,97.436c0,19.875,16.111,35.986,35.986,35.986s35.986-16.111,35.986-35.986S62.953,66.449,43.078,66.449z
		"/>
	<path d="M121.078,66.449c-0.707,0-3.141,0.248-3.719,0.19c0,0-19.025-37.64,22.975-56.974c0,0,5.332-8-7.334-4.666
		c0,0-48.483,11.538-47.908,97.436c0,19.875,16.111,35.986,35.986,35.986s35.986-16.111,35.986-35.986
		S140.953,66.449,121.078,66.449z"/>
</g>
</svg>
